<mxfile host="app.diagrams.net" agent="Mozilla/5.0 (Windows NT 10.0; Win64; x64) AppleWebKit/537.36 (KHTML, like Gecko) Chrome/141.0.0.0 Safari/537.36 Edg/141.0.0.0" version="28.2.7">
  <diagram name="第 1 页" id="tXLQk9LSS77p4pK74QhN">
    <mxGraphModel dx="1034" dy="588" grid="1" gridSize="10" guides="1" tooltips="1" connect="1" arrows="1" fold="1" page="1" pageScale="1" pageWidth="827" pageHeight="1169" math="0" shadow="0">
      <root>
        <mxCell id="0" />
        <mxCell id="1" parent="0" />
        <mxCell id="h4ncaQWbvemy94hN-OBH-1" value="" style="rounded=1;whiteSpace=wrap;html=1;fillColor=#fff2cc;dashed=1;arcSize=6;strokeColor=#d6b656;opacity=40;" vertex="1" parent="1">
          <mxGeometry x="554" y="290" width="314" height="96" as="geometry" />
        </mxCell>
        <mxCell id="h4ncaQWbvemy94hN-OBH-2" value="" style="rounded=1;whiteSpace=wrap;html=1;fillColor=#d5e8d4;dashed=1;arcSize=6;strokeColor=#82b366;opacity=40;" vertex="1" parent="1">
          <mxGeometry x="42" y="290" width="507" height="96" as="geometry" />
        </mxCell>
        <mxCell id="h4ncaQWbvemy94hN-OBH-3" style="edgeStyle=orthogonalEdgeStyle;rounded=0;orthogonalLoop=1;jettySize=auto;html=1;entryX=0;entryY=0.5;entryDx=0;entryDy=0;" edge="1" parent="1" source="h4ncaQWbvemy94hN-OBH-4" target="h4ncaQWbvemy94hN-OBH-7">
          <mxGeometry relative="1" as="geometry" />
        </mxCell>
        <mxCell id="h4ncaQWbvemy94hN-OBH-4" value="" style="html=1;verticalLabelPosition=bottom;align=center;labelBackgroundColor=#ffffff;verticalAlign=top;strokeWidth=2;shadow=0;dashed=0;shape=mxgraph.ios7.icons.data;fillColor=#f5f5f5;fontColor=#333333;strokeColor=#666666;" vertex="1" parent="1">
          <mxGeometry x="63.83" y="301" width="40" height="40" as="geometry" />
        </mxCell>
        <mxCell id="h4ncaQWbvemy94hN-OBH-5" value="&lt;font face=&quot;Times New Roman&quot;&gt;Original&lt;/font&gt;&lt;div&gt;&lt;span style=&quot;font-family: &amp;quot;Times New Roman&amp;quot;; background-color: transparent; color: light-dark(rgb(0, 0, 0), rgb(255, 255, 255));&quot;&gt;Dataset&lt;/span&gt;&lt;/div&gt;" style="text;html=1;align=center;verticalAlign=middle;resizable=0;points=[];autosize=1;strokeColor=none;fillColor=none;" vertex="1" parent="1">
          <mxGeometry x="53.83" y="341" width="60" height="40" as="geometry" />
        </mxCell>
        <mxCell id="h4ncaQWbvemy94hN-OBH-6" style="edgeStyle=orthogonalEdgeStyle;rounded=0;orthogonalLoop=1;jettySize=auto;html=1;exitX=1;exitY=0.5;exitDx=0;exitDy=0;entryX=0;entryY=0.5;entryDx=0;entryDy=0;" edge="1" parent="1" source="h4ncaQWbvemy94hN-OBH-7" target="h4ncaQWbvemy94hN-OBH-10">
          <mxGeometry relative="1" as="geometry" />
        </mxCell>
        <mxCell id="h4ncaQWbvemy94hN-OBH-7" value="&lt;span style=&quot;font-family: &amp;quot;Times New Roman&amp;quot;; font-size: 14px; text-wrap-mode: nowrap;&quot;&gt;Categorical&lt;/span&gt;&lt;div&gt;&lt;span style=&quot;font-family: &amp;quot;Times New Roman&amp;quot;; font-size: 14px; text-wrap-mode: nowrap;&quot;&gt;Augmentation&lt;/span&gt;&lt;/div&gt;" style="rounded=1;whiteSpace=wrap;html=1;fillColor=#dae8fc;strokeColor=#6c8ebf;" vertex="1" parent="1">
          <mxGeometry x="153.82999999999998" y="296.88" width="110" height="48.25" as="geometry" />
        </mxCell>
        <mxCell id="h4ncaQWbvemy94hN-OBH-8" value="&lt;font face=&quot;Times New Roman&quot; color=&quot;#009900&quot;&gt;&lt;span style=&quot;font-size: 16px;&quot;&gt;&lt;b&gt;Contextual Bootstrapped D&lt;/b&gt;&lt;/span&gt;&lt;/font&gt;&lt;b style=&quot;background-color: initial; font-size: 16px; color: rgb(0, 153, 0); font-family: &amp;quot;Times New Roman&amp;quot;;&quot;&gt;ata Generation (CBDG)&lt;/b&gt;" style="text;html=1;align=center;verticalAlign=middle;resizable=0;points=[];autosize=1;strokeColor=none;fillColor=none;" vertex="1" parent="1">
          <mxGeometry x="153.82999999999998" y="351" width="370" height="30" as="geometry" />
        </mxCell>
        <mxCell id="h4ncaQWbvemy94hN-OBH-9" style="edgeStyle=orthogonalEdgeStyle;rounded=0;orthogonalLoop=1;jettySize=auto;html=1;exitX=1;exitY=0.5;exitDx=0;exitDy=0;entryX=0;entryY=0.5;entryDx=0;entryDy=0;" edge="1" parent="1" source="h4ncaQWbvemy94hN-OBH-10" target="h4ncaQWbvemy94hN-OBH-11">
          <mxGeometry relative="1" as="geometry" />
        </mxCell>
        <mxCell id="h4ncaQWbvemy94hN-OBH-10" value="&lt;span style=&quot;text-wrap-mode: nowrap; font-family: &amp;quot;Times New Roman&amp;quot;; font-size: 14px;&quot;&gt;Background&lt;/span&gt;&lt;div&gt;&lt;span style=&quot;font-family: &amp;quot;Times New Roman&amp;quot;; font-size: 14px; text-wrap-mode: nowrap;&quot;&gt;Generation&lt;/span&gt;&lt;/div&gt;" style="rounded=1;whiteSpace=wrap;html=1;fillColor=#dae8fc;strokeColor=#6c8ebf;" vertex="1" parent="1">
          <mxGeometry x="283.83000000000004" y="296.88" width="110" height="48.25" as="geometry" />
        </mxCell>
        <mxCell id="h4ncaQWbvemy94hN-OBH-11" value="&lt;span style=&quot;text-wrap-mode: nowrap; font-family: &amp;quot;Times New Roman&amp;quot;; font-size: 14px;&quot;&gt;Background&lt;/span&gt;&lt;div&gt;&lt;span style=&quot;font-family: &amp;quot;Times New Roman&amp;quot;; font-size: 14px; text-wrap-mode: nowrap;&quot;&gt;Replacement&lt;/span&gt;&lt;/div&gt;" style="rounded=1;whiteSpace=wrap;html=1;fillColor=#dae8fc;strokeColor=#6c8ebf;" vertex="1" parent="1">
          <mxGeometry x="413.83" y="296.88" width="110" height="48.25" as="geometry" />
        </mxCell>
        <mxCell id="h4ncaQWbvemy94hN-OBH-12" value="" style="html=1;verticalLabelPosition=bottom;align=center;labelBackgroundColor=#ffffff;verticalAlign=top;strokeWidth=2;shadow=0;dashed=0;shape=mxgraph.ios7.icons.data;fillColor=#f5f5f5;fontColor=#333333;strokeColor=#666666;" vertex="1" parent="1">
          <mxGeometry x="573.83" y="301" width="40" height="40" as="geometry" />
        </mxCell>
        <mxCell id="h4ncaQWbvemy94hN-OBH-13" value="&lt;font face=&quot;Times New Roman&quot;&gt;Augmented&lt;/font&gt;&lt;div&gt;&lt;span style=&quot;font-family: &amp;quot;Times New Roman&amp;quot;; background-color: transparent; color: light-dark(rgb(0, 0, 0), rgb(255, 255, 255));&quot;&gt;Dataset D&lt;sub&gt;j&lt;/sub&gt;&lt;/span&gt;&lt;/div&gt;" style="text;html=1;align=center;verticalAlign=middle;resizable=0;points=[];autosize=1;strokeColor=none;fillColor=none;" vertex="1" parent="1">
          <mxGeometry x="553.83" y="336" width="80" height="50" as="geometry" />
        </mxCell>
        <mxCell id="h4ncaQWbvemy94hN-OBH-14" style="edgeStyle=orthogonalEdgeStyle;rounded=0;orthogonalLoop=1;jettySize=auto;html=1;exitX=1;exitY=0.5;exitDx=0;exitDy=0;" edge="1" parent="1" source="h4ncaQWbvemy94hN-OBH-11">
          <mxGeometry relative="1" as="geometry">
            <mxPoint x="573.83" y="321.12" as="targetPoint" />
          </mxGeometry>
        </mxCell>
        <mxCell id="h4ncaQWbvemy94hN-OBH-15" value="&lt;font face=&quot;Times New Roman&quot;&gt;&lt;span style=&quot;font-size: 14px; text-wrap-mode: nowrap;&quot;&gt;Baseline&lt;/span&gt;&lt;/font&gt;&lt;div&gt;&lt;font style=&quot;font-size: 9px;&quot; face=&quot;Times New Roman&quot;&gt;&lt;span style=&quot;text-wrap-mode: nowrap;&quot;&gt;&lt;i style=&quot;&quot;&gt;L=L&lt;sub style=&quot;&quot;&gt;cls&lt;/sub&gt;+L&lt;sub style=&quot;&quot;&gt;loc&lt;/sub&gt;+&lt;font style=&quot;color: rgb(153, 0, 77);&quot;&gt;L&lt;sub style=&quot;&quot;&gt;cons&lt;/sub&gt;&lt;/font&gt;&lt;/i&gt;&lt;/span&gt;&lt;/font&gt;&lt;/div&gt;" style="rounded=1;whiteSpace=wrap;html=1;fillColor=#f8cecc;strokeColor=#b85450;" vertex="1" parent="1">
          <mxGeometry x="673.83" y="296.88" width="110" height="48.25" as="geometry" />
        </mxCell>
        <mxCell id="h4ncaQWbvemy94hN-OBH-16" style="edgeStyle=orthogonalEdgeStyle;rounded=0;orthogonalLoop=1;jettySize=auto;html=1;entryX=0;entryY=0.25;entryDx=0;entryDy=0;exitX=1;exitY=0.199;exitDx=0;exitDy=0;exitPerimeter=0;" edge="1" parent="1" source="h4ncaQWbvemy94hN-OBH-12" target="h4ncaQWbvemy94hN-OBH-15">
          <mxGeometry relative="1" as="geometry">
            <mxPoint x="113.83" y="331.12" as="sourcePoint" />
            <mxPoint x="163.82999999999998" y="331.12" as="targetPoint" />
          </mxGeometry>
        </mxCell>
        <mxCell id="h4ncaQWbvemy94hN-OBH-17" style="edgeStyle=orthogonalEdgeStyle;rounded=0;orthogonalLoop=1;jettySize=auto;html=1;entryX=0;entryY=0.75;entryDx=0;entryDy=0;exitX=1.001;exitY=0.809;exitDx=0;exitDy=0;exitPerimeter=0;" edge="1" parent="1" source="h4ncaQWbvemy94hN-OBH-12" target="h4ncaQWbvemy94hN-OBH-15">
          <mxGeometry relative="1" as="geometry">
            <mxPoint x="622.83" y="319.12" as="sourcePoint" />
            <mxPoint x="683.83" y="319.12" as="targetPoint" />
          </mxGeometry>
        </mxCell>
        <mxCell id="h4ncaQWbvemy94hN-OBH-18" value="&lt;font style=&quot;font-size: 9px;&quot; face=&quot;Times New Roman&quot;&gt;Text&lt;/font&gt;" style="text;html=1;align=center;verticalAlign=middle;whiteSpace=wrap;rounded=0;" vertex="1" parent="1">
          <mxGeometry x="623.83" y="296.88" width="30" height="10" as="geometry" />
        </mxCell>
        <mxCell id="h4ncaQWbvemy94hN-OBH-19" value="&lt;font style=&quot;font-size: 9px;&quot; face=&quot;Times New Roman&quot;&gt;Image&lt;/font&gt;" style="text;html=1;align=center;verticalAlign=middle;whiteSpace=wrap;rounded=0;" vertex="1" parent="1">
          <mxGeometry x="623.83" y="335.13" width="30" height="10" as="geometry" />
        </mxCell>
        <mxCell id="h4ncaQWbvemy94hN-OBH-20" value="" style="shape=image;verticalLabelPosition=bottom;labelBackgroundColor=default;verticalAlign=top;aspect=fixed;imageAspect=0;image=data:image/svg+xml,PHN2ZyB4bWxucz0iaHR0cDovL3d3dy53My5vcmcvMjAwMC9zdmciIHN0cm9rZS13aWR0aD0iMC4wNjQiIHN0cm9rZT0iI0ZGOTk5OSIgdmlld0JveD0iLTggLTggMzIuMDAgMzIuMDAiIGhlaWdodD0iNjRweCIgd2lkdGg9IjY0cHgiIGZpbGw9IiNGRjk5OTkiPiYjeGE7JiN4YTs8ZyBzdHJva2Utd2lkdGg9IjAiIGlkPSJTVkdSZXBvX2JnQ2FycmllciIvPiYjeGE7JiN4YTs8ZyBzdHJva2UtbGluZWpvaW49InJvdW5kIiBzdHJva2UtbGluZWNhcD0icm91bmQiIGlkPSJTVkdSZXBvX3RyYWNlckNhcnJpZXIiLz4mI3hhOyYjeGE7PGcgaWQ9IlNWR1JlcG9faWNvbkNhcnJpZXIiPiYjeGE7JiN4YTs8cGF0aCBkPSJNOS4zMiAxNS42NTNhLjgxMi44MTIgMCAwIDEtLjA4Ni0uODU1Yy4xNzYtLjM0Mi4yNDUtLjczMy4yLTEuMTE4YTIuMTA2IDIuMTA2IDAgMCAwLS4yNjctLjc3OSAyLjAyNyAyLjAyNyAwIDAgMC0uNTQxLS42MDYgMy45NiAzLjk2IDAgMCAxLTEuNDgxLTIuMjgyYy0xLjcwOCAyLjIzOS0xLjA1MyAzLjUxLS4yMzUgNC42M2EuNzQ4Ljc0OCAwIDAgMS0uMDE0LjkwMS44Ny44NyAwIDAgMS0uMzk0LjI4My44MzguODM4IDAgMCAxLS40NzguMDIzYy0xLjEwNS0uMjctMi4xNDUtLjc4NC0yLjg1LTEuNjAzYTQuNjg2IDQuNjg2IDAgMCAxLS45MDYtMS41NTUgNC44MTEgNC44MTEgMCAwIDEtLjI2My0xLjc5N3MtLjEzMy0yLjQ2MyAyLjgzNy00Ljg3NmMwIDAgMy41MS0yLjk3OCAyLjI5Mi01LjE4YS42MjEuNjIxIDAgMCAxIC4xMTItLjY1My41NTguNTU4IDAgMCAxIC42MjMtLjE0N2wuMTQ2LjA1OGE3LjYzIDcuNjMgMCAwIDEgMi45NiAzLjVjLjU4IDEuNDEzLjU3NiAzLjA2LjE4NCA0LjUyNy4zMjUtLjI5Mi41OTYtLjY0MS44MDEtMS4wMzNsLjAyOS0uMDY0Yy4xOTgtLjQ3Ny44MjEtLjMyNSAxLjA1NS0uMDEzLjA4Ni4xMzcgMi4yOTIgMy4zNDMgMS4xMDcgNi4wNDhhNS41MTYgNS41MTYgMCAwIDEtMS44NCAyLjAyNyA2LjEyNyA2LjEyNyAwIDAgMS0yLjEzOC44OTMuODM0LjgzNCAwIDAgMS0uNDcyLS4wMzguODY3Ljg2NyAwIDAgMS0uMzgxLS4yOXpNNy41NTQgNy44OTJhLjQyMi40MjIgMCAwIDEgLjU1LjE0NmMuMDQuMDU5LjA2Ni4xMjYuMDc1LjE5OGwuMDQ1LjM0OWMuMDIuNTExLjAxNCAxLjA0NS4yMTMgMS41MzYuMjA2LjUwNC41MjYuOTUuOTMyIDEuMjk4YTMuMDYgMy4wNiAwIDAgMSAxLjE2IDEuNDIyYy4yMi41NjQuMjUgMS4xOS4wODQgMS43NzNhNC4xMjMgNC4xMjMgMCAwIDAgMS4zOS0uNzU3bC4xMDMtLjA4NGMuMzM2LS4yNzcuNjEzLS42MjMuODEzLTEuMDE3LjIwMS0uMzkzLjMyMi0uODI1LjM1NC0xLjI2OS4wNjUtMS4wMjUtLjI4NC0yLjA1NC0uODI3LTIuOTcyLS4yNDguMzYtLjU5LjYzOS0uOTg1LjgwNC0uMjQ3LjEwNS0uNTA5LjE3LS43NzYuMTlhLjc5Mi43OTIgMCAwIDEtLjQzOS0uMS44MzIuODMyIDAgMCAxLS4zMjEtLjMyOC44MjUuODI1IDAgMCAxLS4wMzUtLjcyOWMuNDEyLS45NzIuNTQtMi4wNS4zNjUtMy4wOTdhNS44NzQgNS44NzQgMCAwIDAtMS42NDItMy4xNmMtLjE1NiAyLjIwNS0yLjQxNyA0LjI1OC0yLjg4MSA0LjdhMy41MzcgMy41MzcgMCAwIDEtLjIyNC4xOTRjLTIuNDI2IDEuOTY1LTIuMjYgMy43NTUtMi4yNiAzLjgzNGEzLjY3OCAzLjY3OCAwIDAgMCAuNDU5IDIuMDQzYy4zNjUuNjQ1Ljg5IDEuMTc3IDEuNTIgMS41NEM0LjUgMTIuODA4IDQuNSAxMC44OSA3LjE4MyA4LjE0bC4zNzItLjI1eiIvPiYjeGE7JiN4YTs8L2c+JiN4YTsmI3hhOzwvc3ZnPg==;clipPath=inset(21.88% 26.56% 21.88% 29.69%);" vertex="1" parent="1">
          <mxGeometry x="700" y="361.57" width="14.67" height="18.86" as="geometry" />
        </mxCell>
        <mxCell id="h4ncaQWbvemy94hN-OBH-21" value="&lt;font face=&quot;Times New Roman&quot; color=&quot;#696969&quot;&gt;&lt;span style=&quot;font-size: 14px;&quot;&gt;: &lt;/span&gt;&lt;/font&gt;&lt;font face=&quot;Times New Roman&quot; color=&quot;#696969&quot;&gt;&lt;span style=&quot;font-size: 14px;&quot;&gt;Post Training&lt;/span&gt;&lt;/font&gt;" style="text;html=1;align=center;verticalAlign=middle;resizable=0;points=[];autosize=1;strokeColor=none;fillColor=none;" vertex="1" parent="1">
          <mxGeometry x="706.16" y="356" width="110" height="30" as="geometry" />
        </mxCell>
        <mxCell id="h4ncaQWbvemy94hN-OBH-22" value="" style="shape=image;verticalLabelPosition=bottom;labelBackgroundColor=default;verticalAlign=top;aspect=fixed;imageAspect=0;image=data:image/svg+xml,PHN2ZyB4bWxucz0iaHR0cDovL3d3dy53My5vcmcvMjAwMC9zdmciIHN0cm9rZS13aWR0aD0iMC4wNjQiIHN0cm9rZT0iI0ZGOTk5OSIgdmlld0JveD0iLTggLTggMzIuMDAgMzIuMDAiIGhlaWdodD0iNjRweCIgd2lkdGg9IjY0cHgiIGZpbGw9IiNGRjk5OTkiPiYjeGE7JiN4YTs8ZyBzdHJva2Utd2lkdGg9IjAiIGlkPSJTVkdSZXBvX2JnQ2FycmllciIvPiYjeGE7JiN4YTs8ZyBzdHJva2UtbGluZWpvaW49InJvdW5kIiBzdHJva2UtbGluZWNhcD0icm91bmQiIGlkPSJTVkdSZXBvX3RyYWNlckNhcnJpZXIiLz4mI3hhOyYjeGE7PGcgaWQ9IlNWR1JlcG9faWNvbkNhcnJpZXIiPiYjeGE7JiN4YTs8cGF0aCBkPSJNOS4zMiAxNS42NTNhLjgxMi44MTIgMCAwIDEtLjA4Ni0uODU1Yy4xNzYtLjM0Mi4yNDUtLjczMy4yLTEuMTE4YTIuMTA2IDIuMTA2IDAgMCAwLS4yNjctLjc3OSAyLjAyNyAyLjAyNyAwIDAgMC0uNTQxLS42MDYgMy45NiAzLjk2IDAgMCAxLTEuNDgxLTIuMjgyYy0xLjcwOCAyLjIzOS0xLjA1MyAzLjUxLS4yMzUgNC42M2EuNzQ4Ljc0OCAwIDAgMS0uMDE0LjkwMS44Ny44NyAwIDAgMS0uMzk0LjI4My44MzguODM4IDAgMCAxLS40NzguMDIzYy0xLjEwNS0uMjctMi4xNDUtLjc4NC0yLjg1LTEuNjAzYTQuNjg2IDQuNjg2IDAgMCAxLS45MDYtMS41NTUgNC44MTEgNC44MTEgMCAwIDEtLjI2My0xLjc5N3MtLjEzMy0yLjQ2MyAyLjgzNy00Ljg3NmMwIDAgMy41MS0yLjk3OCAyLjI5Mi01LjE4YS42MjEuNjIxIDAgMCAxIC4xMTItLjY1My41NTguNTU4IDAgMCAxIC42MjMtLjE0N2wuMTQ2LjA1OGE3LjYzIDcuNjMgMCAwIDEgMi45NiAzLjVjLjU4IDEuNDEzLjU3NiAzLjA2LjE4NCA0LjUyNy4zMjUtLjI5Mi41OTYtLjY0MS44MDEtMS4wMzNsLjAyOS0uMDY0Yy4xOTgtLjQ3Ny44MjEtLjMyNSAxLjA1NS0uMDEzLjA4Ni4xMzcgMi4yOTIgMy4zNDMgMS4xMDcgNi4wNDhhNS41MTYgNS41MTYgMCAwIDEtMS44NCAyLjAyNyA2LjEyNyA2LjEyNyAwIDAgMS0yLjEzOC44OTMuODM0LjgzNCAwIDAgMS0uNDcyLS4wMzguODY3Ljg2NyAwIDAgMS0uMzgxLS4yOXpNNy41NTQgNy44OTJhLjQyMi40MjIgMCAwIDEgLjU1LjE0NmMuMDQuMDU5LjA2Ni4xMjYuMDc1LjE5OGwuMDQ1LjM0OWMuMDIuNTExLjAxNCAxLjA0NS4yMTMgMS41MzYuMjA2LjUwNC41MjYuOTUuOTMyIDEuMjk4YTMuMDYgMy4wNiAwIDAgMSAxLjE2IDEuNDIyYy4yMi41NjQuMjUgMS4xOS4wODQgMS43NzNhNC4xMjMgNC4xMjMgMCAwIDAgMS4zOS0uNzU3bC4xMDMtLjA4NGMuMzM2LS4yNzcuNjEzLS42MjMuODEzLTEuMDE3LjIwMS0uMzkzLjMyMi0uODI1LjM1NC0xLjI2OS4wNjUtMS4wMjUtLjI4NC0yLjA1NC0uODI3LTIuOTcyLS4yNDguMzYtLjU5LjYzOS0uOTg1LjgwNC0uMjQ3LjEwNS0uNTA5LjE3LS43NzYuMTlhLjc5Mi43OTIgMCAwIDEtLjQzOS0uMS44MzIuODMyIDAgMCAxLS4zMjEtLjMyOC44MjUuODI1IDAgMCAxLS4wMzUtLjcyOWMuNDEyLS45NzIuNTQtMi4wNS4zNjUtMy4wOTdhNS44NzQgNS44NzQgMCAwIDAtMS42NDItMy4xNmMtLjE1NiAyLjIwNS0yLjQxNyA0LjI1OC0yLjg4MSA0LjdhMy41MzcgMy41MzcgMCAwIDEtLjIyNC4xOTRjLTIuNDI2IDEuOTY1LTIuMjYgMy43NTUtMi4yNiAzLjgzNGEzLjY3OCAzLjY3OCAwIDAgMCAuNDU5IDIuMDQzYy4zNjUuNjQ1Ljg5IDEuMTc3IDEuNTIgMS41NEM0LjUgMTIuODA4IDQuNSAxMC44OSA3LjE4MyA4LjE0bC4zNzItLjI1eiIvPiYjeGE7JiN4YTs8L2c+JiN4YTsmI3hhOzwvc3ZnPg==;clipPath=inset(21.88% 26.56% 21.88% 29.69%);" vertex="1" parent="1">
          <mxGeometry x="763.83" y="301" width="14.67" height="18.86" as="geometry" />
        </mxCell>
        <mxCell id="h4ncaQWbvemy94hN-OBH-23" value="&lt;font size=&quot;1&quot; color=&quot;#ad800d&quot;&gt;&lt;b style=&quot;font-size: 18px;&quot;&gt;CCL&lt;/b&gt;&lt;/font&gt;&lt;div&gt;&lt;font size=&quot;1&quot; color=&quot;#ad800d&quot;&gt;&lt;b style=&quot;font-size: 18px;&quot;&gt;Training&lt;/b&gt;&lt;/font&gt;&lt;/div&gt;" style="text;html=1;align=center;verticalAlign=middle;resizable=0;points=[];autosize=1;strokeColor=none;fillColor=none;fontFamily=Times New Roman;fontSize=15;" vertex="1" parent="1">
          <mxGeometry x="778" y="290" width="90" height="60" as="geometry" />
        </mxCell>
        <mxCell id="h4ncaQWbvemy94hN-OBH-24" value="" style="rounded=1;whiteSpace=wrap;html=1;fillColor=#fff2cc;dashed=1;arcSize=6;strokeColor=#d6b656;opacity=40;" vertex="1" parent="1">
          <mxGeometry x="552" y="40" width="314" height="96" as="geometry" />
        </mxCell>
        <mxCell id="h4ncaQWbvemy94hN-OBH-25" value="" style="rounded=1;whiteSpace=wrap;html=1;fillColor=#e1d5e7;dashed=1;arcSize=6;strokeColor=#9673a6;opacity=40;" vertex="1" parent="1">
          <mxGeometry x="40" y="40" width="507" height="96" as="geometry" />
        </mxCell>
        <mxCell id="h4ncaQWbvemy94hN-OBH-26" value="&lt;font style=&quot;color: light-dark(rgb(111, 14, 123), rgb(1, 119, 1));&quot; face=&quot;Times New Roman&quot;&gt;&lt;span style=&quot;font-size: 16px;&quot;&gt;&lt;b style=&quot;&quot;&gt;Existing Methods&lt;/b&gt;&lt;/span&gt;&lt;/font&gt;" style="text;html=1;align=center;verticalAlign=middle;resizable=0;points=[];autosize=1;strokeColor=none;fillColor=none;" vertex="1" parent="1">
          <mxGeometry x="483.83000000000004" y="160" width="140" height="30" as="geometry" />
        </mxCell>
        <mxCell id="h4ncaQWbvemy94hN-OBH-27" style="edgeStyle=orthogonalEdgeStyle;rounded=0;orthogonalLoop=1;jettySize=auto;html=1;entryX=0;entryY=0.25;entryDx=0;entryDy=0;exitX=1;exitY=0.199;exitDx=0;exitDy=0;exitPerimeter=0;" edge="1" parent="1">
          <mxGeometry relative="1" as="geometry">
            <mxPoint x="611.8299999999999" y="58.960000000000036" as="sourcePoint" />
            <mxPoint x="671.8299999999999" y="58.94250000000011" as="targetPoint" />
          </mxGeometry>
        </mxCell>
        <mxCell id="h4ncaQWbvemy94hN-OBH-28" style="edgeStyle=orthogonalEdgeStyle;rounded=0;orthogonalLoop=1;jettySize=auto;html=1;entryX=0;entryY=0.75;entryDx=0;entryDy=0;exitX=1.001;exitY=0.809;exitDx=0;exitDy=0;exitPerimeter=0;" edge="1" parent="1">
          <mxGeometry relative="1" as="geometry">
            <mxPoint x="611.8699999999999" y="83.3599999999999" as="sourcePoint" />
            <mxPoint x="671.8299999999999" y="83.06750000000011" as="targetPoint" />
          </mxGeometry>
        </mxCell>
        <mxCell id="h4ncaQWbvemy94hN-OBH-29" value="&lt;font style=&quot;font-size: 9px;&quot; face=&quot;Times New Roman&quot;&gt;Text&lt;/font&gt;" style="text;html=1;align=center;verticalAlign=middle;whiteSpace=wrap;rounded=0;" vertex="1" parent="1">
          <mxGeometry x="621.8299999999999" y="46.879999999999995" width="30" height="10" as="geometry" />
        </mxCell>
        <mxCell id="h4ncaQWbvemy94hN-OBH-30" value="&lt;font style=&quot;font-size: 9px;&quot; face=&quot;Times New Roman&quot;&gt;Image&lt;/font&gt;" style="text;html=1;align=center;verticalAlign=middle;whiteSpace=wrap;rounded=0;" vertex="1" parent="1">
          <mxGeometry x="621.8299999999999" y="85.13" width="30" height="10" as="geometry" />
        </mxCell>
        <mxCell id="h4ncaQWbvemy94hN-OBH-31" value="&lt;b style=&quot;color: rgb(173, 128, 13); font-family: &amp;quot;Times New Roman&amp;quot;; font-size: 18px;&quot;&gt;CCL Learning&lt;/b&gt;" style="text;html=1;align=center;verticalAlign=middle;resizable=0;points=[];autosize=1;strokeColor=none;fillColor=none;" vertex="1" parent="1">
          <mxGeometry x="580" y="96" width="140" height="40" as="geometry" />
        </mxCell>
        <mxCell id="h4ncaQWbvemy94hN-OBH-32" value="&lt;font style=&quot;font-size: 9px;&quot; face=&quot;Times New Roman&quot;&gt;Text1&lt;/font&gt;" style="text;html=1;align=center;verticalAlign=middle;whiteSpace=wrap;rounded=0;" vertex="1" parent="1">
          <mxGeometry x="89.99999999999997" y="56.879999999999995" width="30" height="10" as="geometry" />
        </mxCell>
        <mxCell id="h4ncaQWbvemy94hN-OBH-33" value="&lt;font style=&quot;font-size: 9px;&quot; face=&quot;Times New Roman&quot;&gt;Text2&lt;/font&gt;" style="text;html=1;align=center;verticalAlign=middle;whiteSpace=wrap;rounded=0;" vertex="1" parent="1">
          <mxGeometry x="123.83" y="56.879999999999995" width="30" height="10" as="geometry" />
        </mxCell>
        <mxCell id="h4ncaQWbvemy94hN-OBH-34" value="&lt;font size=&quot;1&quot; face=&quot;Times New Roman&quot;&gt;...&lt;/font&gt;" style="text;html=1;align=center;verticalAlign=middle;whiteSpace=wrap;rounded=0;" vertex="1" parent="1">
          <mxGeometry x="160" y="56.879999999999995" width="30" height="10" as="geometry" />
        </mxCell>
        <mxCell id="h4ncaQWbvemy94hN-OBH-35" value="&lt;font style=&quot;font-size: 9px;&quot; face=&quot;Times New Roman&quot;&gt;Textn&lt;/font&gt;" style="text;html=1;align=center;verticalAlign=middle;whiteSpace=wrap;rounded=0;" vertex="1" parent="1">
          <mxGeometry x="230" y="60" width="30" height="10" as="geometry" />
        </mxCell>
        <mxCell id="h4ncaQWbvemy94hN-OBH-36" value="&lt;font style=&quot;font-size: 9px;&quot; face=&quot;Times New Roman&quot;&gt;Image1&lt;/font&gt;" style="text;html=1;align=center;verticalAlign=middle;whiteSpace=wrap;rounded=0;" vertex="1" parent="1">
          <mxGeometry x="90" y="100" width="30" height="10" as="geometry" />
        </mxCell>
        <mxCell id="h4ncaQWbvemy94hN-OBH-37" value="&lt;font style=&quot;font-size: 9px;&quot; face=&quot;Times New Roman&quot;&gt;Text2&lt;/font&gt;" style="text;html=1;align=center;verticalAlign=middle;whiteSpace=wrap;rounded=0;" vertex="1" parent="1">
          <mxGeometry x="123.83000000000004" y="100" width="30" height="10" as="geometry" />
        </mxCell>
        <mxCell id="h4ncaQWbvemy94hN-OBH-38" value="&lt;font size=&quot;1&quot; face=&quot;Times New Roman&quot;&gt;...&lt;/font&gt;" style="text;html=1;align=center;verticalAlign=middle;whiteSpace=wrap;rounded=0;" vertex="1" parent="1">
          <mxGeometry x="160" y="100" width="30" height="10" as="geometry" />
        </mxCell>
        <mxCell id="h4ncaQWbvemy94hN-OBH-39" value="&lt;font style=&quot;font-size: 9px;&quot; face=&quot;Times New Roman&quot;&gt;Textn&lt;/font&gt;" style="text;html=1;align=center;verticalAlign=middle;whiteSpace=wrap;rounded=0;" vertex="1" parent="1">
          <mxGeometry x="230" y="103.12" width="30" height="10" as="geometry" />
        </mxCell>
      </root>
    </mxGraphModel>
  </diagram>
</mxfile>
